<mxfile host="Electron" modified="2024-02-04T10:51:34.173Z" agent="Mozilla/5.0 (Windows NT 10.0; Win64; x64) AppleWebKit/537.36 (KHTML, like Gecko) draw.io/23.0.2 Chrome/120.0.6099.109 Electron/28.1.0 Safari/537.36" etag="7Dcc_OWE2Fse3ogM45Go" version="23.0.2" type="device">
  <diagram name="Page-1" id="Vn82a3clUUM7UXjUx4xn">
    <mxGraphModel dx="794" dy="511" grid="1" gridSize="10" guides="1" tooltips="1" connect="1" arrows="1" fold="1" page="1" pageScale="1" pageWidth="827" pageHeight="1169" math="0" shadow="0">
      <root>
        <mxCell id="0" />
        <mxCell id="1" parent="0" />
        <UserObject label="Publisher" type="externalEntity" source="" flow="Publishes Private Dataset, Updates Data Package, Versions Data Package" placeholders="1" id="RHyjbcRDEsP6YppyWRIp-1">
          <mxCell style="shape=rectangle;whiteSpace=wrap;html=1;fillColor=#ffffff;strokeColor=#000000;align=center;verticalAlign=middle;fontColor=#232F3E;" vertex="1" parent="1">
            <mxGeometry y="125" width="75" height="35" as="geometry" />
          </mxCell>
        </UserObject>
        <UserObject label="Consumer" type="externalEntity" source="" flow="Browses Public Datasets, Downloads Data Package, Validates Data Package" placeholders="1" id="RHyjbcRDEsP6YppyWRIp-2">
          <mxCell style="shape=rectangle;whiteSpace=wrap;html=1;fillColor=#ffffff;strokeColor=#000000;align=center;verticalAlign=middle;fontColor=#232F3E;" vertex="1" parent="1">
            <mxGeometry x="215" y="377.5" width="85" height="35" as="geometry" />
          </mxCell>
        </UserObject>
        <UserObject label="Registry" type="externalEntity" source="" flow="Manages Data Packages" placeholders="1" id="RHyjbcRDEsP6YppyWRIp-3">
          <mxCell style="shape=rectangle;whiteSpace=wrap;html=1;fillColor=#ffffff;strokeColor=#000000;align=center;verticalAlign=middle;fontColor=#232F3E;" vertex="1" parent="1">
            <mxGeometry y="312.5" width="75" height="35" as="geometry" />
          </mxCell>
        </UserObject>
        <UserObject label="Private Dataset" type="dataStore" source="1" flow="Private Data" placeholders="1" id="RHyjbcRDEsP6YppyWRIp-4">
          <mxCell style="html=1;dashed=0;whiteSpace=wrap;shape=partialRectangle;right=0;left=0;" vertex="1" parent="1">
            <mxGeometry x="200" y="62.5" width="115" height="35" as="geometry" />
          </mxCell>
        </UserObject>
        <UserObject label="Public Datasets" type="dataStore" source="3" flow="Public Data" placeholders="1" id="RHyjbcRDEsP6YppyWRIp-5">
          <mxCell style="html=1;dashed=0;whiteSpace=wrap;shape=partialRectangle;right=0;left=0;" vertex="1" parent="1">
            <mxGeometry x="200" y="442.5" width="115" height="35" as="geometry" />
          </mxCell>
        </UserObject>
        <UserObject label="Data Package" type="dataStore" source="3" flow="Data Package" placeholders="1" id="RHyjbcRDEsP6YppyWRIp-6">
          <mxCell style="html=1;dashed=0;whiteSpace=wrap;shape=partialRectangle;right=0;left=0;" vertex="1" parent="1">
            <mxGeometry x="205" y="312.5" width="105" height="35" as="geometry" />
          </mxCell>
        </UserObject>
        <UserObject label="Versioned Data Package" type="dataStore" source="3" flow="Versioned Data Package" placeholders="1" id="RHyjbcRDEsP6YppyWRIp-7">
          <mxCell style="html=1;dashed=0;whiteSpace=wrap;shape=partialRectangle;right=0;left=0;" vertex="1" parent="1">
            <mxGeometry x="175" y="247.5" width="165" height="35" as="geometry" />
          </mxCell>
        </UserObject>
        <UserObject label="Publish Private Dataset" type="process" source="1,4" flow="Publishes Private Dataset" placeholders="1" id="RHyjbcRDEsP6YppyWRIp-8">
          <mxCell style="shape=ellipse;perimeter=ellipsePerimeter;whiteSpace=wrap;html=1;fillColor=#ffffff;strokeColor=#000000;align=center;verticalAlign=middle;fontColor=#232F3E;" vertex="1" parent="1">
            <mxGeometry x="445" width="155" height="35" as="geometry" />
          </mxCell>
        </UserObject>
        <UserObject label="Update Data Package" type="process" source="1,6" flow="Updates Data Package" placeholders="1" id="RHyjbcRDEsP6YppyWRIp-9">
          <mxCell style="shape=ellipse;perimeter=ellipsePerimeter;whiteSpace=wrap;html=1;fillColor=#ffffff;strokeColor=#000000;align=center;verticalAlign=middle;fontColor=#232F3E;" vertex="1" parent="1">
            <mxGeometry x="450" y="125" width="145" height="35" as="geometry" />
          </mxCell>
        </UserObject>
        <UserObject label="Browse Public Datasets" type="process" source="2,5" flow="Browses Public Datasets" placeholders="1" id="RHyjbcRDEsP6YppyWRIp-10">
          <mxCell style="shape=ellipse;perimeter=ellipsePerimeter;whiteSpace=wrap;html=1;fillColor=#ffffff;strokeColor=#000000;align=center;verticalAlign=middle;fontColor=#232F3E;" vertex="1" parent="1">
            <mxGeometry x="445" y="475" width="155" height="35" as="geometry" />
          </mxCell>
        </UserObject>
        <UserObject label="Download Data Package" type="process" source="2,6" flow="Downloads Data Package" placeholders="1" id="RHyjbcRDEsP6YppyWRIp-11">
          <mxCell style="shape=ellipse;perimeter=ellipsePerimeter;whiteSpace=wrap;html=1;fillColor=#ffffff;strokeColor=#000000;align=center;verticalAlign=middle;fontColor=#232F3E;" vertex="1" parent="1">
            <mxGeometry x="440" y="255" width="165" height="35" as="geometry" />
          </mxCell>
        </UserObject>
        <UserObject label="Validate Data Package" type="process" source="2,6" flow="Validates Data Package" placeholders="1" id="RHyjbcRDEsP6YppyWRIp-12">
          <mxCell style="shape=ellipse;perimeter=ellipsePerimeter;whiteSpace=wrap;html=1;fillColor=#ffffff;strokeColor=#000000;align=center;verticalAlign=middle;fontColor=#232F3E;" vertex="1" parent="1">
            <mxGeometry x="450" y="320" width="145" height="35" as="geometry" />
          </mxCell>
        </UserObject>
        <UserObject label="Version Data Package" type="process" source="1,7" flow="Versions Data Package" placeholders="1" id="RHyjbcRDEsP6YppyWRIp-13">
          <mxCell style="shape=ellipse;perimeter=ellipsePerimeter;whiteSpace=wrap;html=1;fillColor=#ffffff;strokeColor=#000000;align=center;verticalAlign=middle;fontColor=#232F3E;" vertex="1" parent="1">
            <mxGeometry x="450" y="190" width="145" height="35" as="geometry" />
          </mxCell>
        </UserObject>
        <UserObject label="Access Private Dataset" type="dataFlow" source="1,8" flow="Access Private Dataset" placeholders="1" id="RHyjbcRDEsP6YppyWRIp-14">
          <mxCell style="whiteSpace=wrap;html=1;rounded=1;fillColor=#ffffff;strokeColor=#000000;" vertex="1" parent="1">
            <mxGeometry x="705" y="23.75" width="155" height="35" as="geometry" />
          </mxCell>
        </UserObject>
        <UserObject label="Access Public Dataset" type="dataFlow" source="2,11" flow="Access Public Dataset" placeholders="1" id="RHyjbcRDEsP6YppyWRIp-15">
          <mxCell style="whiteSpace=wrap;html=1;rounded=1;fillColor=#ffffff;strokeColor=#000000;" vertex="1" parent="1">
            <mxGeometry x="710" y="302.5" width="145" height="35" as="geometry" />
          </mxCell>
        </UserObject>
        <UserObject label="Access Validated Data" type="dataFlow" source="2,12" flow="Access Validated Data" placeholders="1" id="RHyjbcRDEsP6YppyWRIp-16">
          <mxCell style="whiteSpace=wrap;html=1;rounded=1;fillColor=#ffffff;strokeColor=#000000;" vertex="1" parent="1">
            <mxGeometry x="710" y="373.75" width="145" height="35" as="geometry" />
          </mxCell>
        </UserObject>
        <UserObject label="Access Updated Data" type="dataFlow" source="1,9" flow="Access Updated Data" placeholders="1" id="RHyjbcRDEsP6YppyWRIp-17">
          <mxCell style="whiteSpace=wrap;html=1;rounded=1;fillColor=#ffffff;strokeColor=#000000;" vertex="1" parent="1">
            <mxGeometry x="710" y="101.25" width="145" height="35" as="geometry" />
          </mxCell>
        </UserObject>
        <UserObject label="Access Versioned Data" type="dataFlow" source="2,13" flow="Access Versioned Data" placeholders="1" id="RHyjbcRDEsP6YppyWRIp-18">
          <mxCell style="whiteSpace=wrap;html=1;rounded=1;fillColor=#ffffff;strokeColor=#000000;" vertex="1" parent="1">
            <mxGeometry x="705" y="237.5" width="155" height="35" as="geometry" />
          </mxCell>
        </UserObject>
        <mxCell id="RHyjbcRDEsP6YppyWRIp-19" value="Private Data" style="endArrow=blockThin;endFill=1;fontSize=11;orthogonal=1;noEdgeStyle=1;" edge="1" parent="1" source="RHyjbcRDEsP6YppyWRIp-1" target="RHyjbcRDEsP6YppyWRIp-4">
          <mxGeometry relative="1" as="geometry">
            <Array as="points">
              <mxPoint x="89" y="133.75" />
              <mxPoint x="163" y="80" />
            </Array>
          </mxGeometry>
        </mxCell>
        <mxCell id="RHyjbcRDEsP6YppyWRIp-20" value="Public Data" style="endArrow=blockThin;endFill=1;fontSize=11;orthogonal=1;noEdgeStyle=1;" edge="1" parent="1" source="RHyjbcRDEsP6YppyWRIp-3" target="RHyjbcRDEsP6YppyWRIp-5">
          <mxGeometry relative="1" as="geometry">
            <Array as="points">
              <mxPoint x="87" y="338.3333333333333" />
              <mxPoint x="163" y="460" />
            </Array>
          </mxGeometry>
        </mxCell>
        <mxCell id="RHyjbcRDEsP6YppyWRIp-21" value="Data Package" style="endArrow=blockThin;endFill=1;fontSize=11;orthogonal=1;noEdgeStyle=1;" edge="1" parent="1" source="RHyjbcRDEsP6YppyWRIp-3" target="RHyjbcRDEsP6YppyWRIp-6">
          <mxGeometry relative="1" as="geometry">
            <Array as="points">
              <mxPoint x="89" y="330" />
              <mxPoint x="163" y="330" />
            </Array>
          </mxGeometry>
        </mxCell>
        <mxCell id="RHyjbcRDEsP6YppyWRIp-22" value="Versioned Data Package" style="endArrow=blockThin;endFill=1;fontSize=11;orthogonal=1;noEdgeStyle=1;" edge="1" parent="1" source="RHyjbcRDEsP6YppyWRIp-3" target="RHyjbcRDEsP6YppyWRIp-7">
          <mxGeometry relative="1" as="geometry">
            <Array as="points">
              <mxPoint x="87" y="321.6666666666667" />
              <mxPoint x="163" y="265" />
            </Array>
          </mxGeometry>
        </mxCell>
        <mxCell id="RHyjbcRDEsP6YppyWRIp-23" value="Publishes Private Dataset" style="endArrow=blockThin;endFill=1;fontSize=11;orthogonal=1;noEdgeStyle=1;" edge="1" parent="1" source="RHyjbcRDEsP6YppyWRIp-1" target="RHyjbcRDEsP6YppyWRIp-8">
          <mxGeometry relative="1" as="geometry">
            <Array as="points">
              <mxPoint x="87" y="127.91666666666667" />
              <mxPoint x="125" y="32.5" />
              <mxPoint x="390" y="32.5" />
              <mxPoint x="428" y="11.25" />
            </Array>
          </mxGeometry>
        </mxCell>
        <mxCell id="RHyjbcRDEsP6YppyWRIp-24" value="Publishes Private Dataset" style="endArrow=blockThin;endFill=1;fontSize=11;orthogonal=1;noEdgeStyle=1;" edge="1" parent="1" source="RHyjbcRDEsP6YppyWRIp-4" target="RHyjbcRDEsP6YppyWRIp-8">
          <mxGeometry relative="1" as="geometry">
            <Array as="points">
              <mxPoint x="352" y="80" />
              <mxPoint x="428" y="23.75" />
            </Array>
          </mxGeometry>
        </mxCell>
        <mxCell id="RHyjbcRDEsP6YppyWRIp-25" value="Updates Data Package" style="endArrow=blockThin;endFill=1;fontSize=11;orthogonal=1;noEdgeStyle=1;" edge="1" parent="1" source="RHyjbcRDEsP6YppyWRIp-1" target="RHyjbcRDEsP6YppyWRIp-9">
          <mxGeometry relative="1" as="geometry">
            <Array as="points">
              <mxPoint x="89" y="151.25000000000003" />
              <mxPoint x="125" y="187.5" />
              <mxPoint x="390" y="187.5" />
              <mxPoint x="428" y="136.25" />
            </Array>
          </mxGeometry>
        </mxCell>
        <mxCell id="RHyjbcRDEsP6YppyWRIp-26" value="Updates Data Package" style="endArrow=blockThin;endFill=1;fontSize=11;orthogonal=1;noEdgeStyle=1;" edge="1" parent="1" source="RHyjbcRDEsP6YppyWRIp-6" target="RHyjbcRDEsP6YppyWRIp-9">
          <mxGeometry relative="1" as="geometry">
            <Array as="points">
              <mxPoint x="352" y="321.6666666666667" />
              <mxPoint x="428" y="148.75" />
            </Array>
          </mxGeometry>
        </mxCell>
        <mxCell id="RHyjbcRDEsP6YppyWRIp-27" value="Browses Public Datasets" style="endArrow=blockThin;endFill=1;fontSize=11;orthogonal=1;noEdgeStyle=1;" edge="1" parent="1" source="RHyjbcRDEsP6YppyWRIp-2" target="RHyjbcRDEsP6YppyWRIp-10">
          <mxGeometry relative="1" as="geometry">
            <Array as="points">
              <mxPoint x="352" y="409.58333333333326" />
              <mxPoint x="428" y="486.25" />
            </Array>
          </mxGeometry>
        </mxCell>
        <mxCell id="RHyjbcRDEsP6YppyWRIp-28" value="Browses Public Datasets" style="endArrow=blockThin;endFill=1;fontSize=11;orthogonal=1;noEdgeStyle=1;" edge="1" parent="1" source="RHyjbcRDEsP6YppyWRIp-5" target="RHyjbcRDEsP6YppyWRIp-10">
          <mxGeometry relative="1" as="geometry">
            <Array as="points">
              <mxPoint x="352" y="460" />
              <mxPoint x="428" y="498.75" />
            </Array>
          </mxGeometry>
        </mxCell>
        <mxCell id="RHyjbcRDEsP6YppyWRIp-29" value="Downloads Data Package" style="endArrow=blockThin;endFill=1;fontSize=11;orthogonal=1;noEdgeStyle=1;" edge="1" parent="1" source="RHyjbcRDEsP6YppyWRIp-2" target="RHyjbcRDEsP6YppyWRIp-11">
          <mxGeometry relative="1" as="geometry">
            <Array as="points">
              <mxPoint x="352" y="380.4166666666667" />
              <mxPoint x="428" y="278.75" />
            </Array>
          </mxGeometry>
        </mxCell>
        <mxCell id="RHyjbcRDEsP6YppyWRIp-30" value="Downloads Data Package" style="endArrow=blockThin;endFill=1;fontSize=11;orthogonal=1;noEdgeStyle=1;" edge="1" parent="1" source="RHyjbcRDEsP6YppyWRIp-6" target="RHyjbcRDEsP6YppyWRIp-11">
          <mxGeometry relative="1" as="geometry">
            <Array as="points">
              <mxPoint x="354" y="330" />
              <mxPoint x="428" y="266.25" />
            </Array>
          </mxGeometry>
        </mxCell>
        <mxCell id="RHyjbcRDEsP6YppyWRIp-31" value="Validates Data Package" style="endArrow=blockThin;endFill=1;fontSize=11;orthogonal=1;noEdgeStyle=1;" edge="1" parent="1" source="RHyjbcRDEsP6YppyWRIp-2" target="RHyjbcRDEsP6YppyWRIp-12">
          <mxGeometry relative="1" as="geometry">
            <Array as="points">
              <mxPoint x="354" y="386.25" />
              <mxPoint x="428" y="343.75" />
            </Array>
          </mxGeometry>
        </mxCell>
        <mxCell id="RHyjbcRDEsP6YppyWRIp-32" value="Validates Data Package" style="endArrow=blockThin;endFill=1;fontSize=11;orthogonal=1;noEdgeStyle=1;" edge="1" parent="1" source="RHyjbcRDEsP6YppyWRIp-6" target="RHyjbcRDEsP6YppyWRIp-12">
          <mxGeometry relative="1" as="geometry">
            <Array as="points">
              <mxPoint x="352" y="338.3333333333333" />
              <mxPoint x="428" y="331.25" />
            </Array>
          </mxGeometry>
        </mxCell>
        <mxCell id="RHyjbcRDEsP6YppyWRIp-33" value="Versions Data Package" style="endArrow=blockThin;endFill=1;fontSize=11;orthogonal=1;noEdgeStyle=1;" edge="1" parent="1" source="RHyjbcRDEsP6YppyWRIp-1" target="RHyjbcRDEsP6YppyWRIp-13">
          <mxGeometry relative="1" as="geometry">
            <Array as="points">
              <mxPoint x="87" y="157.08333333333337" />
              <mxPoint x="125" y="217.5" />
              <mxPoint x="390" y="217.5" />
              <mxPoint x="428" y="201.25" />
            </Array>
          </mxGeometry>
        </mxCell>
        <mxCell id="RHyjbcRDEsP6YppyWRIp-34" value="Versions Data Package" style="endArrow=blockThin;endFill=1;fontSize=11;orthogonal=1;noEdgeStyle=1;" edge="1" parent="1" source="RHyjbcRDEsP6YppyWRIp-7" target="RHyjbcRDEsP6YppyWRIp-13">
          <mxGeometry relative="1" as="geometry">
            <Array as="points">
              <mxPoint x="352" y="265" />
              <mxPoint x="428" y="213.75" />
            </Array>
          </mxGeometry>
        </mxCell>
        <mxCell id="RHyjbcRDEsP6YppyWRIp-35" value="Access Private Dataset" style="endArrow=blockThin;endFill=1;fontSize=11;orthogonal=1;noEdgeStyle=1;" edge="1" parent="1" source="RHyjbcRDEsP6YppyWRIp-1" target="RHyjbcRDEsP6YppyWRIp-14">
          <mxGeometry relative="1" as="geometry">
            <Array as="points">
              <mxPoint x="91" y="139.58333333333334" />
              <mxPoint x="125" y="127.5" />
              <mxPoint x="390" y="127.5" />
              <mxPoint x="390" y="65" />
              <mxPoint x="655" y="65" />
              <mxPoint x="693" y="47.5" />
            </Array>
          </mxGeometry>
        </mxCell>
        <mxCell id="RHyjbcRDEsP6YppyWRIp-36" value="Access Private Dataset" style="endArrow=blockThin;endFill=1;fontSize=11;orthogonal=1;noEdgeStyle=1;" edge="1" parent="1" source="RHyjbcRDEsP6YppyWRIp-8" target="RHyjbcRDEsP6YppyWRIp-14">
          <mxGeometry relative="1" as="geometry">
            <Array as="points">
              <mxPoint x="617" y="17.5" />
              <mxPoint x="693" y="35" />
            </Array>
          </mxGeometry>
        </mxCell>
        <mxCell id="RHyjbcRDEsP6YppyWRIp-37" value="Access Public Dataset" style="endArrow=blockThin;endFill=1;fontSize=11;orthogonal=1;noEdgeStyle=1;" edge="1" parent="1" source="RHyjbcRDEsP6YppyWRIp-2" target="RHyjbcRDEsP6YppyWRIp-15">
          <mxGeometry relative="1" as="geometry">
            <Array as="points">
              <mxPoint x="356" y="397.91666666666663" />
              <mxPoint x="390" y="415" />
              <mxPoint x="655" y="415" />
              <mxPoint x="693" y="326.25" />
            </Array>
          </mxGeometry>
        </mxCell>
        <mxCell id="RHyjbcRDEsP6YppyWRIp-38" value="Access Public Dataset" style="endArrow=blockThin;endFill=1;fontSize=11;orthogonal=1;noEdgeStyle=1;" edge="1" parent="1" source="RHyjbcRDEsP6YppyWRIp-11" target="RHyjbcRDEsP6YppyWRIp-15">
          <mxGeometry relative="1" as="geometry">
            <Array as="points">
              <mxPoint x="617" y="272.5" />
              <mxPoint x="693" y="313.75" />
            </Array>
          </mxGeometry>
        </mxCell>
        <mxCell id="RHyjbcRDEsP6YppyWRIp-39" value="Access Validated Data" style="endArrow=blockThin;endFill=1;fontSize=11;orthogonal=1;noEdgeStyle=1;" edge="1" parent="1" source="RHyjbcRDEsP6YppyWRIp-2" target="RHyjbcRDEsP6YppyWRIp-16">
          <mxGeometry relative="1" as="geometry">
            <Array as="points">
              <mxPoint x="354" y="403.74999999999994" />
              <mxPoint x="390" y="445" />
              <mxPoint x="655" y="445" />
              <mxPoint x="693" y="397.5" />
            </Array>
          </mxGeometry>
        </mxCell>
        <mxCell id="RHyjbcRDEsP6YppyWRIp-40" value="Access Validated Data" style="endArrow=blockThin;endFill=1;fontSize=11;orthogonal=1;noEdgeStyle=1;" edge="1" parent="1" source="RHyjbcRDEsP6YppyWRIp-12" target="RHyjbcRDEsP6YppyWRIp-16">
          <mxGeometry relative="1" as="geometry">
            <Array as="points">
              <mxPoint x="617" y="337.5" />
              <mxPoint x="693" y="385" />
            </Array>
          </mxGeometry>
        </mxCell>
        <mxCell id="RHyjbcRDEsP6YppyWRIp-41" value="Access Updated Data" style="endArrow=blockThin;endFill=1;fontSize=11;orthogonal=1;noEdgeStyle=1;" edge="1" parent="1" source="RHyjbcRDEsP6YppyWRIp-1" target="RHyjbcRDEsP6YppyWRIp-17">
          <mxGeometry relative="1" as="geometry">
            <Array as="points">
              <mxPoint x="91" y="145.41666666666669" />
              <mxPoint x="125" y="157.5" />
              <mxPoint x="390" y="157.5" />
              <mxPoint x="390" y="95" />
              <mxPoint x="655" y="95" />
              <mxPoint x="693" y="112.5" />
            </Array>
          </mxGeometry>
        </mxCell>
        <mxCell id="RHyjbcRDEsP6YppyWRIp-42" value="Access Updated Data" style="endArrow=blockThin;endFill=1;fontSize=11;orthogonal=1;noEdgeStyle=1;" edge="1" parent="1" source="RHyjbcRDEsP6YppyWRIp-9" target="RHyjbcRDEsP6YppyWRIp-17">
          <mxGeometry relative="1" as="geometry">
            <Array as="points">
              <mxPoint x="617" y="142.5" />
              <mxPoint x="693" y="125" />
            </Array>
          </mxGeometry>
        </mxCell>
        <mxCell id="RHyjbcRDEsP6YppyWRIp-43" value="Access Versioned Data" style="endArrow=blockThin;endFill=1;fontSize=11;orthogonal=1;noEdgeStyle=1;" edge="1" parent="1" source="RHyjbcRDEsP6YppyWRIp-2" target="RHyjbcRDEsP6YppyWRIp-18">
          <mxGeometry relative="1" as="geometry">
            <Array as="points">
              <mxPoint x="356" y="392.0833333333333" />
              <mxPoint x="390" y="385" />
              <mxPoint x="655" y="385" />
              <mxPoint x="693" y="261.25" />
            </Array>
          </mxGeometry>
        </mxCell>
        <mxCell id="RHyjbcRDEsP6YppyWRIp-44" value="Access Versioned Data" style="endArrow=blockThin;endFill=1;fontSize=11;orthogonal=1;noEdgeStyle=1;" edge="1" parent="1" source="RHyjbcRDEsP6YppyWRIp-13" target="RHyjbcRDEsP6YppyWRIp-18">
          <mxGeometry relative="1" as="geometry">
            <Array as="points">
              <mxPoint x="617" y="207.5" />
              <mxPoint x="693" y="248.75" />
            </Array>
          </mxGeometry>
        </mxCell>
      </root>
    </mxGraphModel>
  </diagram>
</mxfile>
